<svg width="21" height="21" viewBox="0 0 21 21" fill="none" xmlns="http://www.w3.org/2000/svg">
<g id="Icons/message-circle">
<path id="Vector" d="M18 10.0833C18.0029 11.1832 17.7459 12.2682 17.25 13.25C16.662 14.4265 15.7581 15.416 14.6395 16.1077C13.521 16.7995 12.2319 17.1662 10.9167 17.1667C9.81678 17.1695 8.73176 16.9126 7.75 16.4167L3 18L4.58333 13.25C4.08744 12.2682 3.83047 11.1832 3.83333 10.0833C3.83384 8.76813 4.20051 7.47904 4.89227 6.36046C5.58402 5.24187 6.57355 4.33797 7.75 3.75C8.73176 3.25411 9.81678 2.99713 10.9167 3H11.3333C13.0703 3.09583 14.7109 3.82897 15.9409 5.05905C17.171 6.28913 17.9042 7.92971 18 9.66667V10.0833Z" stroke="black" stroke-width="2" stroke-linecap="round" stroke-linejoin="round"/>
</g>
</svg>
