<svg width="21" height="21" viewBox="0 0 21 21" fill="none" xmlns="http://www.w3.org/2000/svg">
<g id="Icons/heart">
<path id="Vector" d="M17.8667 4.34167C17.4411 3.91584 16.9357 3.57804 16.3795 3.34757C15.8233 3.1171 15.2271 2.99848 14.6251 2.99848C14.023 2.99848 13.4268 3.1171 12.8706 3.34757C12.3144 3.57804 11.809 3.91584 11.3834 4.34167L10.5001 5.225L9.61673 4.34167C8.75698 3.48193 7.59092 2.99893 6.37506 2.99893C5.1592 2.99893 3.99314 3.48193 3.13339 4.34167C2.27365 5.20141 1.79065 6.36748 1.79065 7.58334C1.79065 8.7992 2.27365 9.96526 3.13339 10.825L4.01672 11.7083L10.5001 18.1917L16.9834 11.7083L17.8667 10.825C18.2926 10.3994 18.6304 9.89401 18.8608 9.3378C19.0913 8.78158 19.2099 8.18541 19.2099 7.58334C19.2099 6.98126 19.0913 6.38509 18.8608 5.82887C18.6304 5.27266 18.2926 4.7673 17.8667 4.34167Z" fill="#EB5757"/>
</g>
</svg>
